<?xml version="1.0"?>
<svg width="660.46" height="1206.46" xmlns="http://www.w3.org/2000/svg" xmlns:svg="http://www.w3.org/2000/svg" class="w-screen lg:w-full mc:h-[700px] 2xl:h-[90vh] 3xl:h-[95vh] 4xl:h-screen sm:mx-auto object-fit  menor ">

 <g class="layer">
  <title>Layer 1</title>
  <g class="body-map__model" id="body">
   <path d="m266.34,936.47c-0.89,-19.84 -16.47,-25.12 -28.26,-16.43c-14.11,10.4 -36.12,-39.53 -43.56,-12.29" fill="none" id="svg_22" stroke="#484a68" stroke-linecap="round" stroke-linejoin="round" stroke-width="3.52"/>
   <path d="m17.22,536.8c2.09,7.99 6.55,13.88 11.67,15.84c4.99,1.91 12,0.65 18.85,-3.56" fill="none" id="svg_23" stroke="#484a68" stroke-linecap="round" stroke-linejoin="round" stroke-width="3.52"/>
   <path d="m102.63,369.78c-11.91,35.01 10.78,12.73 19.35,18c8.73,5.36 -8.23,50.09 34.96,11.52" fill="none" id="svg_24" stroke="#484a68" stroke-linecap="round" stroke-linejoin="round" stroke-width="3.52"/>
   <path d="m223.86,212.87c23.48,-0.79 35.4,13.24 40.81,19.16c12.57,13.74 20.72,0.94 65.59,0.94" fill="none" id="svg_25" stroke="#484a68" stroke-linecap="round" stroke-linejoin="round" stroke-width="3.52"/>
   <path d="m264.67,232.03c52.5,96.35 51.77,138.65 65.59,138.65" fill="none" id="svg_26" stroke="#484a68" stroke-linecap="round" stroke-linejoin="round" stroke-width="3.52"/>
   <path d="m146.43,293.74s7.92,-6.67 16.02,-7.1c8.1,-0.43 32.12,-0.43 50.22,-15.45c18.1,-15.01 34.72,-25.92 50.42,-40.9" fill="none" id="svg_27" stroke="#484a68" stroke-linecap="round" stroke-linejoin="round" stroke-width="3.52"/>
   <path d="m306.02,321.31c16.1,39.45 8.58,62.94 -20.42,117.65c-15.8,29.81 7.37,62.98 -19.95,73.7c-17.48,6.86 -43.08,23.91 -44.85,40.85" fill="none" id="svg_28" stroke="#484a68" stroke-linecap="round" stroke-linejoin="round" stroke-width="3.52"/>
   <path d="m199.54,340.06c7.74,-12.38 -13.12,-52.58 0,-60.72" fill="none" id="svg_29" stroke="#484a68" stroke-linecap="round" stroke-linejoin="round" stroke-width="3.52"/>
   <path d="m330.26,615.06c0,35.81 -24.38,31.69 -49.78,30.16c-27.16,-1.64 -63.32,-19.3 -43.62,-80.18c8.85,-27.35 8.53,-46.89 35.82,-54.97c19.3,-5.72 57.58,-4.57 57.58,44.65" fill="none" id="svg_30" stroke="#484a68" stroke-linecap="round" stroke-linejoin="round" stroke-width="3.52"/>
   <path d="m203,792.63s13.43,96.36 35.71,40.85c22.28,-55.5 -1.29,32.07 27.64,32.07c13.1,0 21.17,-19.38 28.81,-70.69" fill="none" id="svg_31" stroke="#484a68" stroke-linecap="round" stroke-linejoin="round" stroke-width="3.52"/>
   <path d="m183.71,966.72c1.71,31.85 5.8,54.85 19.28,55.65c13.93,0.82 20.85,-31.78 26.38,-31.31c6.93,0.59 -0.18,31.18 15.44,34.42c4.79,0.99 14.84,1.64 24,-22.13" fill="none" id="svg_32" stroke="#484a68" stroke-linecap="round" stroke-linejoin="round" stroke-width="3.52"/>
   <path d="m394.18,936.47c0.89,-19.84 16.47,-25.12 28.26,-16.43c14.11,10.4 36.12,-39.53 43.56,-12.29" fill="none" id="svg_33" stroke="#484a68" stroke-linecap="round" stroke-linejoin="round" stroke-width="3.52"/>
   <path d="m643.3,536.8c-2.09,7.99 -6.55,13.88 -11.67,15.84c-4.99,1.91 -12,0.65 -18.85,-3.56" fill="none" id="svg_34" stroke="#484a68" stroke-linecap="round" stroke-linejoin="round" stroke-width="3.52"/>
   <path d="m557.89,369.78c11.91,35.01 -10.78,12.73 -19.35,18c-8.73,5.36 8.23,50.09 -34.96,11.52" fill="none" id="svg_35" stroke="#484a68" stroke-linecap="round" stroke-linejoin="round" stroke-width="3.52"/>
   <path d="m390.56,192.86c-21.92,-5.91 -45.38,-4.01 -55.35,-3.59c-3.3,0.14 -6.59,0.14 -9.89,0c-9.98,-0.42 -33.44,-2.32 -55.35,3.59" fill="none" id="svg_36" stroke="#484a68" stroke-linecap="round" stroke-linejoin="round" stroke-width="3.52"/>
   <path d="m436.66,212.87c-23.48,-0.79 -35.4,13.24 -40.81,19.16c-12.57,13.74 -20.72,0.94 -65.59,0.94" fill="none" id="svg_37" stroke="#484a68" stroke-linecap="round" stroke-linejoin="round" stroke-width="3.52"/>
   <path d="m395.85,232.03c-52.5,96.35 -51.77,138.65 -65.59,138.65" fill="none" id="svg_38" stroke="#484a68" stroke-linecap="round" stroke-linejoin="round" stroke-width="3.52"/>
   <path d="m514.09,293.74s-7.92,-6.67 -16.02,-7.1c-8.1,-0.43 -32.12,-0.43 -50.22,-15.45c-18.1,-15.01 -34.72,-25.92 -50.42,-40.9" fill="none" id="svg_39" stroke="#484a68" stroke-linecap="round" stroke-linejoin="round" stroke-width="3.52"/>
   <path d="m354.5,321.31c-16.1,39.45 -8.58,62.94 20.42,117.65c15.8,29.81 -7.37,62.98 19.95,73.7c17.48,6.86 43.08,23.91 44.85,40.85" fill="none" id="svg_40" stroke="#484a68" stroke-linecap="round" stroke-linejoin="round" stroke-width="3.52"/>
   <path d="m460.98,340.06c-7.74,-12.38 13.12,-52.58 0,-60.72" fill="none" id="svg_41" stroke="#484a68" stroke-linecap="round" stroke-linejoin="round" stroke-width="3.52"/>
   <path d="m330.26,615.06c0,35.81 24.38,31.69 49.78,30.16c27.16,-1.64 63.32,-19.3 43.62,-80.18c-8.85,-27.35 -8.53,-46.89 -35.82,-54.97c-19.3,-5.72 -57.58,-4.57 -57.58,44.65" fill="none" id="svg_42" stroke="#484a68" stroke-linecap="round" stroke-linejoin="round" stroke-width="3.52"/>
   <path d="m457.52,792.63s-13.43,96.36 -35.71,40.85c-22.28,-55.5 1.29,32.07 -27.64,32.07c-13.1,0 -21.17,-19.38 -28.81,-70.69" fill="none" id="svg_43" stroke="#484a68" stroke-linecap="round" stroke-linejoin="round" stroke-width="3.52"/>
   <path d="m476.8,966.72c-1.71,31.85 -5.8,54.85 -19.28,55.65c-13.93,0.82 -20.85,-31.78 -26.38,-31.31c-6.93,0.59 0.18,31.18 -15.44,34.42c-4.79,0.99 -14.84,1.64 -24,-22.13" fill="none" id="svg_44" stroke="#484a68" stroke-linecap="round" stroke-linejoin="round" stroke-width="3.52"/>
   <line fill="none" id="svg_45" stroke="#484a68" stroke-linecap="round" stroke-linejoin="round" stroke-width="3.52" x1="330.26" x2="330.26" y1="554.71" y2="615.06"/>
   <path d="m330.26,620.22c-5.25,37.26 -2.28,46.61 -13.11,92.29c-9.91,41.79 -21.41,67.61 -27.83,121.66c-6.42,54.05 -25.22,43.33 -25.68,67.01c13.34,111.61 6.88,93.43 -4.16,125.06c-11.04,31.63 -21.35,72.92 -23.59,90.89c-2.37,19.05 1.52,17.62 -0.47,27.29c-1.99,9.66 -1.75,24.1 -0.66,32.87c1.09,8.77 0.3,25.48 -21.05,25.48s-30.58,-13.24 -30.58,-13.24c-9.05,-2.68 -18.82,-5.91 -25.15,-6.98c-16.47,-4.47 -5.13,-14.14 -5.13,-14.14c4.18,-5.7 10.27,-5.14 10.27,-5.14c3.74,-4.98 8.08,-4.52 8.08,-4.52c9.23,-5.73 19.54,-19.77 19.54,-19.77c1.65,-8.95 3.29,-15.73 4.39,-27.67c1.1,-11.94 -4.39,-55.88 -10.42,-120.72c-6.03,-64.83 17.42,-88.35 18.01,-117.83c0.59,-29.47 7.5,-47.62 4.55,-61.22c-23.86,-89.98 1.7,-210.43 9.8,-233.79c8.1,-23.36 0.47,-15.59 5.89,-37.67c5.42,-22.07 9.39,-65.4 9.18,-78.81c-0.21,-13.41 1.04,-43.32 -11.68,-63.33c-12.72,-20.01 -20.88,-57.88 -20.88,-57.88c-7.83,12.19 -28.95,45.18 -37.32,53.67c-8.37,8.49 -11.09,12.21 -27.84,34.99c-16.75,22.77 -27.42,51.13 -50.03,73.91c-46.47,47.2 -38.65,58.15 -38.65,58.15c12.42,15.29 4.33,22.29 5.92,31.86c4.05,19.15 3.18,23.57 3.18,23.57c-16.47,11.29 -15.6,-20.29 -15.6,-20.29c-15.89,12.72 -14.59,4 -16.02,11.67c-1.55,15.69 -6.38,18.24 -3.97,21.14c2.41,2.9 5.86,10.06 5.86,10.06c9.83,9.04 1.55,15.86 1.55,15.86c-8.28,-9.55 -17.41,-10.74 -18.96,-20.12c-1.55,-9.38 -5.9,-20.97 -5.9,-29.08c1.08,-10.53 11.36,-35.4 11.42,-44.71c-0.62,-23.04 3.5,-21.54 5.71,-26.73c2.21,-5.19 12.71,-40.97 26.79,-77.3c14.09,-36.33 39.03,-61.88 48.31,-70.42c9.29,-8.54 7.34,-17.51 11.66,-24.99s10.66,-21.26 10.66,-21.26c7.86,-27.19 30.11,-46.29 30.11,-46.29c12.11,-75.75 77.43,-80.87 77.43,-80.87" fill="none" id="svg_46" stroke="#484a68" stroke-linecap="round" stroke-linejoin="round" stroke-width="3.52"/>
   <path d="m29.74,646.19s8.31,-5.16 2.87,-13.06c-4.55,-6.58 -5.28,-6.14 -2.87,-15.29c1.87,-7.08 0.7,-12.38 3.36,-17.5" fill="none" id="svg_47" stroke="#484a68" stroke-linecap="round" stroke-linejoin="round" stroke-width="3.52"/>
   <path d="m330.26,620.22c5.25,37.26 2.28,46.61 13.11,92.29c9.91,41.79 21.41,67.61 27.83,121.66c6.42,54.05 25.22,43.33 25.68,67.01c-13.34,111.61 -6.88,93.43 4.16,125.06c11.04,31.63 21.35,72.92 23.59,90.89c2.37,19.05 -1.52,17.62 0.47,27.29c1.99,9.66 1.75,24.1 0.66,32.87c-1.09,8.77 -0.3,25.48 21.05,25.48s30.58,-13.24 30.58,-13.24c9.05,-2.68 18.82,-5.91 25.15,-6.98c16.47,-4.47 5.13,-14.14 5.13,-14.14c-4.18,-5.7 -10.27,-5.14 -10.27,-5.14c-3.74,-4.98 -8.08,-4.52 -8.08,-4.52c-9.23,-5.73 -19.54,-19.77 -19.54,-19.77c-1.65,-8.95 -3.29,-15.73 -4.39,-27.67c-1.1,-11.94 4.39,-55.88 10.42,-120.72c6.03,-64.83 -17.42,-88.35 -18.01,-117.83c-0.59,-29.47 -7.5,-47.62 -4.55,-61.22c23.86,-89.98 -1.7,-210.43 -9.8,-233.79c-8.1,-23.36 -0.47,-15.59 -5.89,-37.67c-5.42,-22.07 -9.39,-65.4 -9.18,-78.81c0.21,-13.41 -1.04,-43.32 11.68,-63.33c12.72,-20.01 20.88,-57.88 20.88,-57.88c7.83,12.19 28.95,45.18 37.32,53.67c8.37,8.49 11.09,12.21 27.84,34.99c16.75,22.77 27.42,51.13 50.03,73.91c46.47,47.2 38.65,58.15 38.65,58.15c-12.42,15.29 -4.33,22.29 -5.92,31.86c-4.05,19.15 -3.18,23.57 -3.18,23.57c16.47,11.29 15.6,-20.29 15.6,-20.29c15.89,12.72 14.59,4 16.02,11.67c1.55,15.69 6.38,18.24 3.97,21.14c-2.41,2.9 -5.86,10.06 -5.86,10.06c-9.83,9.04 -1.55,15.86 -1.55,15.86c8.28,-9.55 17.41,-10.74 18.96,-20.12c1.55,-9.38 5.9,-20.97 5.9,-29.08c-1.08,-10.53 -11.36,-35.4 -11.42,-44.71c0.62,-23.04 -3.5,-21.54 -5.71,-26.73c-2.21,-5.19 -12.71,-40.97 -26.79,-77.3c-14.09,-36.33 -39.03,-61.88 -48.31,-70.42s-7.34,-17.51 -11.66,-24.99c-4.32,-7.48 -10.66,-21.26 -10.66,-21.26c-7.86,-27.19 -30.11,-46.29 -30.11,-46.29c-12.11,-75.75 -77.43,-80.87 -77.43,-80.87" fill="none" id="svg_48" stroke="#484a68" stroke-linecap="round" stroke-linejoin="round" stroke-width="3.52"/>
   <path d="m630.78,646.19s-8.31,-5.16 -2.87,-13.06c4.55,-6.58 5.28,-6.14 2.87,-15.29c-1.87,-7.08 -0.7,-12.38 -3.36,-17.5" fill="none" id="svg_49" stroke="#484a68" stroke-linecap="round" stroke-linejoin="round" stroke-width="3.52"/>
   <g id="svg_50">
    <path d="m228.95,212.29c1.57,-0.7 9.71,-6.15 14.7,-8.41s25.39,-10.44 30.52,-12.98c5.14,-2.54 14.41,-11.57 14.41,-11.57l0.25,-3.16c0.72,-7.78 1.02,-39.35 1.02,-39.35c-2.91,-5.76 -3.49,-15.57 -3.49,-15.57c-7.29,1.44 -12.53,-1.87 -13.99,-21.04c-0.83,-10.94 2.52,-14.45 5.55,-15.44" fill="none" id="svg_51" stroke="#484a68" stroke-linecap="round" stroke-linejoin="round" stroke-width="3.52"/>
    <path d="m382.62,84.78c3.02,1 6.37,4.51 5.54,15.44c-1.46,19.17 -6.71,22.48 -13.99,21.04c0,0 -0.58,9.81 -3.5,15.57c0,0 0.29,31.57 1.03,39.35l0.24,3.16s9.27,9.03 14.41,11.57c5.14,2.54 25.54,10.73 30.53,12.98s13.13,7.71 14.69,8.41" fill="none" id="svg_52" stroke="#484a68" stroke-linecap="round" stroke-linejoin="round" stroke-width="3.52"/>
   </g>
   <path d="m330.26,132.3c15.78,0 25.12,12.03 29.48,9.51c4.35,-2.51 8.07,-13.01 16.41,-23.77c8.34,-10.76 -0.36,-12.56 9.08,-42.7c9.43,-30.14 -14.51,-56.46 -20.68,-60.41c-6.17,-3.95 17.41,10.04 4.72,-3.23c-12.7,-13.27 -38.46,-4.3 -46.44,-2.15s27.21,-9.69 0,-6.1c-22.12,2.92 -39.92,14.6 -46.79,34.66" fill="none" id="svg_53" stroke="#484a68" stroke-linecap="round" stroke-linejoin="round" stroke-width="3.52"/>
   <path d="m330.26,132.3c-15.79,0 -25.13,12.03 -29.48,9.51c-4.36,-2.51 -8.08,-13.01 -16.42,-23.77s0.36,-12.56 -9.07,-42.7c-1.49,-4.74 -2.14,-17.9 -2.17,-22.01l0,-0.04c-0.04,-5.66 1.11,-10.73 2.93,-15.18" fill="none" id="svg_54" stroke="#484a68" stroke-linecap="round" stroke-linejoin="round" stroke-width="3.52"/>
  </g>
 </g>
</svg>