<?xml version="1.0"?>
<svg width="660.46" height="1206.46" xmlns="http://www.w3.org/2000/svg" xmlns:svg="http://www.w3.org/2000/svg" class="w-screen lg:w-full mc:h-[700px] 2xl:h-[90vh] 3xl:h-[95vh] 4xl:h-screen sm:mx-auto object-fit  menor ">

 <g class="layer">
  <title>Layer 1</title>
  <g class="body-map__model" id="body">
   <line fill="none" id="svg_22" stroke="#484a68" stroke-linecap="round" stroke-linejoin="round" stroke-width="3.46" x1="332.4" x2="332.4" y1="505.57" y2="572.92"/>
   <line fill="none" id="svg_23" stroke="#484a68" stroke-linecap="round" stroke-linejoin="round" stroke-width="3.46" x1="332.17" x2="332.17" y1="505.57" y2="572.92"/>
   <line fill="none" id="svg_24" stroke="#484a68" stroke-linecap="round" stroke-linejoin="round" stroke-width="3.46" x1="332.05" x2="332.05" y1="505.57" y2="572.92"/>
   <path d="m31,522.95l0,0.02c1.13,7.67 5.05,13.92 10.29,16.59c4.74,2.41 10.96,2.08 17.03,-0.58" fill="none" id="svg_25" stroke="#484a68" stroke-linecap="round" stroke-linejoin="round" stroke-width="3.46"/>
   <path d="m147.75,309.53c2.76,-1.9 6.01,-3.82 9.75,-5.55c11.35,-5.19 20.97,-5.55 22.92,-5.6c8.44,-0.25 16.47,-0.47 22.46,4.53c10.6,8.82 7.57,27.94 6.41,35.27c-0.62,3.82 -1.53,7.4 -2.65,10.74" fill="none" id="svg_26" stroke="#484a68" stroke-linecap="round" stroke-linejoin="round" stroke-width="3.46"/>
   <path d="m167.89,398.13c-18.42,22.99 -34.28,22.87 -41.87,19.05c-12.72,-6.41 -19.87,-27.43 3.8,-80.98c0,-0.02 0,-0.05 0.02,-0.07" fill="none" id="svg_27" stroke="#484a68" stroke-linecap="round" stroke-linejoin="round" stroke-width="3.46"/>
   <path d="m165.96,300.82l0.04,0" fill="none" id="svg_28" stroke="#484a68" stroke-linecap="round" stroke-linejoin="round" stroke-width="3.46"/>
   <path d="m176.18,298.7l0.04,0c7.63,-1.9 13.62,-4.2 17.35,-6.79c13.04,-9.03 23.37,-21.44 28.14,-27.15c14.81,-17.79 17.05,-25.8 32.65,-35.93c8.58,-5.57 19.32,-8.96 19.32,-8.96c0,0 -25.8,-10.83 -50.18,-5.82l-0.02,0" fill="none" id="svg_29" stroke="#484a68" stroke-linecap="round" stroke-linejoin="round" stroke-width="3.46"/>
   <path d="m273.11,220.05c4.42,-1.26 13.42,-4.71 30.78,-3.02c28.47,2.76 28.17,21.92 28.17,21.92l0,49.79c0,10.17 -3.4,20.09 -9.85,27.83c-5.5,6.61 -13.59,13.92 -24.94,18.98c-27.94,12.47 -60.65,3.65 -80.05,-20.38c-7.28,-9.02 -15.3,-16.9 -29.68,-16.9" fill="none" id="svg_30" stroke="#484a68" stroke-linecap="round" stroke-linejoin="round" stroke-width="3.46"/>
   <path d="m291.56,163.48l0,37.06c0,11.68 -7.04,15.63 -17.89,19.34c-0.54,0.18 -1.1,0.36 -1.67,0.52" fill="none" id="svg_31" stroke="#484a68" stroke-linecap="round" stroke-linejoin="round" stroke-width="3.46"/>
   <path d="m332.05,341.19c0,-16.6 -24.92,-9.38 -34.79,-5.64c-10.73,4.06 -19.35,8.64 -22.18,15.17c-3.41,7.86 3.69,12.72 4.53,33.36c0.22,5.38 -0.28,4.69 -0.19,15.43c0.09,11.2 2.29,60.48 4.34,93.33c3.22,51.71 34.57,94.43 48.29,94.43" fill="none" id="svg_32" stroke="#484a68" stroke-linecap="round" stroke-linejoin="round" stroke-width="3.46"/>
   <path d="m288.4,378c14.08,-4.19 23.65,-6.71 37.6,-6.43c6.05,-0.02 6.05,-9.08 6.05,-18.86" fill="none" id="svg_33" stroke="#484a68" stroke-linecap="round" stroke-linejoin="round" stroke-width="3.46"/>
   <path d="m291.13,424.26c15.66,0.26 30.17,0.65 37.75,-3.74c4.67,-2.71 3.17,-10.45 3.17,-19.61" fill="none" id="svg_34" stroke="#484a68" stroke-linecap="round" stroke-linejoin="round" stroke-width="3.46"/>
   <path d="m292.63,472.07c14.49,0.53 17.46,1.59 31.05,1.19c7.24,-0.55 8.38,-3.7 8.38,-19.3" fill="none" id="svg_35" stroke="#484a68" stroke-linecap="round" stroke-linejoin="round" stroke-width="3.46"/>
   <path d="m300.53,380.04c4.89,-1.29 14.76,-4.25 22.72,-2.87c7.97,1.39 8.8,6.57 8.8,12.58" fill="none" id="svg_36" stroke="#484a68" stroke-linecap="round" stroke-linejoin="round" stroke-width="3.46"/>
   <path d="m300.53,429.4c6.43,-0.76 15.03,-1.74 22.89,-1.63c7.86,0.11 8.64,5.42 8.64,13.89" fill="none" id="svg_37" stroke="#484a68" stroke-linecap="round" stroke-linejoin="round" stroke-width="3.46"/>
   <line fill="none" id="svg_38" stroke="#484a68" stroke-linecap="round" stroke-linejoin="round" stroke-width="3.46" x1="332.29" x2="332.29" y1="505.57" y2="572.92"/>
   <path d="m300.53,478.34c5.89,-0.13 21.17,1.39 26.59,2.64c5.42,1.26 5.16,8.06 5.16,13.98" fill="none" id="svg_39" stroke="#484a68" stroke-linecap="round" stroke-linejoin="round" stroke-width="3.46"/>
   <path d="m220.37,318.78c23.5,26.93 57.29,48.52 58.93,60.58c2.16,15.96 -10.33,48.95 -6.29,77.1c4.04,28.16 -3.04,46.44 -12.16,55.38c-6.96,6.82 -19.03,9.86 -29.31,7.43" fill="none" id="svg_40" stroke="#484a68" stroke-linecap="round" stroke-linejoin="round" stroke-width="3.46"/>
   <path d="m231.53,519.28c19.21,4.08 52.48,20.12 65.45,64.94c12.97,44.82 19.66,61.4 35.08,61.4" fill="none" id="svg_41" stroke="#484a68" stroke-linecap="round" stroke-linejoin="round" stroke-width="3.46"/>
   <path d="m208.28,784.67c5.85,26.98 7.58,56.74 28.95,46.03c13.1,-6.59 2.82,30.89 26.81,31.31c23.99,0.41 31.22,-52.55 31.22,-52.55" fill="none" id="svg_42" stroke="#484a68" stroke-linecap="round" stroke-linejoin="round" stroke-width="3.46"/>
   <path d="m275.39,882.54c-0.16,0.29 -0.32,0.56 -0.46,0.83c-15.13,26.11 -38.4,28.46 -48.59,9.57c-4.85,-8.96 -7.91,-12.75 -15.04,-14.45" fill="none" id="svg_43" stroke="#484a68" stroke-linecap="round" stroke-linejoin="round" stroke-width="3.46"/>
   <line fill="none" id="svg_44" stroke="#484a68" stroke-linecap="round" stroke-linejoin="round" stroke-width="3.46" x1="332.05" x2="332.05" y1="505.57" y2="572.92"/>
   <line fill="none" id="svg_45" stroke="#484a68" stroke-linecap="round" stroke-linejoin="round" stroke-width="3.46" x1="332.29" x2="332.29" y1="505.57" y2="572.92"/>
   <line fill="none" id="svg_46" stroke="#484a68" stroke-linecap="round" stroke-linejoin="round" stroke-width="3.46" x1="332.4" x2="332.4" y1="505.57" y2="572.92"/>
   <path d="m633.46,522.95l0,0.02c-1.13,7.67 -5.05,13.92 -10.29,16.59c-4.74,2.41 -10.96,2.08 -17.03,-0.58" fill="none" id="svg_47" stroke="#484a68" stroke-linecap="round" stroke-linejoin="round" stroke-width="3.46"/>
   <path d="m516.71,309.53c-2.76,-1.9 -6.01,-3.82 -9.75,-5.55c-11.35,-5.19 -20.97,-5.55 -22.92,-5.6c-8.44,-0.25 -16.47,-0.47 -22.46,4.53c-10.6,8.82 -7.57,27.94 -6.41,35.27c0.62,3.82 1.53,7.4 2.65,10.74" fill="none" id="svg_48" stroke="#484a68" stroke-linecap="round" stroke-linejoin="round" stroke-width="3.46"/>
   <path d="m496.57,398.13c18.42,22.99 34.28,22.87 41.87,19.05c12.72,-6.41 19.87,-27.43 -3.8,-80.98c0,-0.02 0,-0.05 -0.02,-0.07" fill="none" id="svg_49" stroke="#484a68" stroke-linecap="round" stroke-linejoin="round" stroke-width="3.46"/>
   <path d="m498.5,300.82l-0.04,0" fill="none" id="svg_50" stroke="#484a68" stroke-linecap="round" stroke-linejoin="round" stroke-width="3.46"/>
   <path d="m488.27,298.7l-0.04,0c-7.63,-1.9 -13.62,-4.2 -17.35,-6.79c-13.04,-9.03 -23.37,-21.44 -28.14,-27.15c-14.81,-17.79 -17.05,-25.8 -32.65,-35.93c-8.58,-5.57 -19.32,-8.96 -19.32,-8.96c0,0 25.8,-10.83 50.18,-5.82l0.02,0" fill="none" id="svg_51" stroke="#484a68" stroke-linecap="round" stroke-linejoin="round" stroke-width="3.46"/>
   <path d="m391.35,220.05c-4.42,-1.26 -13.42,-4.71 -30.78,-3.02c-28.47,2.76 -28.17,21.92 -28.17,21.92l0,49.79c0,10.17 3.4,20.09 9.85,27.83c5.5,6.61 13.59,13.92 24.94,18.98c27.94,12.47 60.65,3.65 80.05,-20.38c7.28,-9.02 15.3,-16.9 29.68,-16.9" fill="none" id="svg_52" stroke="#484a68" stroke-linecap="round" stroke-linejoin="round" stroke-width="3.46"/>
   <path d="m372.9,163.48l0,37.06c0,11.68 7.04,15.63 17.89,19.34c0.54,0.18 1.1,0.36 1.67,0.52" fill="none" id="svg_53" stroke="#484a68" stroke-linecap="round" stroke-linejoin="round" stroke-width="3.46"/>
   <path d="m332.4,341.19c0,-16.6 24.92,-9.38 34.79,-5.64c10.73,4.06 19.35,8.64 22.18,15.17c3.41,7.86 -3.69,12.72 -4.53,33.36c-0.22,5.38 0.28,4.69 0.19,15.43c-0.09,11.2 -2.29,60.48 -4.34,93.33c-3.22,51.71 -34.57,94.43 -48.29,94.43" fill="none" id="svg_54" stroke="#484a68" stroke-linecap="round" stroke-linejoin="round" stroke-width="3.46"/>
   <path d="m376.06,378c-14.08,-4.19 -23.65,-6.71 -37.6,-6.43c-6.05,-0.02 -6.05,-9.08 -6.05,-18.86" fill="none" id="svg_55" stroke="#484a68" stroke-linecap="round" stroke-linejoin="round" stroke-width="3.46"/>
   <path d="m373.33,424.26c-15.66,0.26 -30.17,0.65 -37.75,-3.74c-4.67,-2.71 -3.17,-10.45 -3.17,-19.61" fill="none" id="svg_56" stroke="#484a68" stroke-linecap="round" stroke-linejoin="round" stroke-width="3.46"/>
   <path d="m371.83,472.07c-14.49,0.53 -17.46,1.59 -31.05,1.19c-7.24,-0.55 -8.38,-3.7 -8.38,-19.3" fill="none" id="svg_57" stroke="#484a68" stroke-linecap="round" stroke-linejoin="round" stroke-width="3.46"/>
   <path d="m363.93,380.04c-4.89,-1.29 -14.76,-4.25 -22.72,-2.87c-7.97,1.39 -8.8,6.57 -8.8,12.58" fill="none" id="svg_58" stroke="#484a68" stroke-linecap="round" stroke-linejoin="round" stroke-width="3.46"/>
   <path d="m363.93,429.4c-6.43,-0.76 -15.03,-1.74 -22.89,-1.63c-7.86,0.11 -8.64,5.42 -8.64,13.89" fill="none" id="svg_59" stroke="#484a68" stroke-linecap="round" stroke-linejoin="round" stroke-width="3.46"/>
   <line fill="none" id="svg_60" stroke="#484a68" stroke-linecap="round" stroke-linejoin="round" stroke-width="3.46" x1="332.17" x2="332.17" y1="505.57" y2="572.92"/>
   <path d="m363.93,478.34c-5.89,-0.13 -21.17,1.39 -26.59,2.64c-5.42,1.26 -5.16,8.06 -5.16,13.98" fill="none" id="svg_61" stroke="#484a68" stroke-linecap="round" stroke-linejoin="round" stroke-width="3.46"/>
   <path d="m444.09,318.78c-23.5,26.93 -57.29,48.52 -58.93,60.58c-2.16,15.96 10.33,48.95 6.29,77.1c-4.04,28.16 3.04,46.44 12.16,55.38c6.96,6.82 19.03,9.86 29.31,7.43" fill="none" id="svg_62" stroke="#484a68" stroke-linecap="round" stroke-linejoin="round" stroke-width="3.46"/>
   <path d="m432.93,519.28c-19.21,4.08 -52.48,20.12 -65.45,64.94c-12.97,44.82 -19.66,61.4 -35.08,61.4" fill="none" id="svg_63" stroke="#484a68" stroke-linecap="round" stroke-linejoin="round" stroke-width="3.46"/>
   <path d="m456.18,784.67c-5.85,26.98 -7.58,56.74 -28.95,46.03c-13.1,-6.59 -2.82,30.89 -26.81,31.31c-23.99,0.41 -31.22,-52.55 -31.22,-52.55" fill="none" id="svg_64" stroke="#484a68" stroke-linecap="round" stroke-linejoin="round" stroke-width="3.46"/>
   <path d="m389.07,882.54c0.16,0.29 0.32,0.56 0.46,0.83c15.13,26.11 38.4,28.46 48.59,9.57c4.85,-8.96 7.91,-12.75 15.04,-14.45" fill="none" id="svg_65" stroke="#484a68" stroke-linecap="round" stroke-linejoin="round" stroke-width="3.46"/>
   <path d="m284.69,84.67s-11.03,-3.64 -9.62,15.53c1.41,19.17 6.49,22.48 13.54,21.04c0,0 0.56,9.8 3.39,15.57c0,0 -0.28,31.56 -0.99,39.35c0,0 -9.17,9.22 -14.25,11.82c-5.08,2.59 -25.25,10.95 -30.19,13.26c-4.94,2.31 -12.98,9.66 -14.53,10.38s-11.43,3.17 -14.67,4.04c-3.24,0.86 -40.77,3.32 -54.17,48c-2.26,8.22 -5.08,9.95 -13.26,41.8c-2.82,9.22 -9.31,1.01 -37.1,68.03c-4.09,10.09 -10.16,12.4 -28.92,35.46c-18.76,23.06 -37.53,80.63 -50.04,108.21c-9.99,18.48 -9.43,31.75 -22.35,56.69c-7.46,14.93 -4.33,8.55 -6.29,25.23c-1.96,16.68 -1.54,22.28 -1.33,25.62c0.21,3.33 5.03,20.44 5.03,20.44c0,0 10.99,1.03 8.51,-13.09c-2.49,-14.12 -0.44,-10.69 1.6,-24.88c1.78,-7.72 5.78,-6.19 9.33,-18.43c2.41,-5.04 6.22,-5.97 6.22,-5.97c0,0 -2.7,26.61 7.23,26.81c9.93,0.2 7.9,-11.98 9.16,-26.5c1.07,-8.63 2.4,-13.32 5.09,-16.67c2.69,-3.35 5.7,-11.75 0.29,-19.36c-2.18,-3.33 6.62,-15.9 8.66,-18.62c18.84,-20.12 28.69,-20.34 49.4,-46.76c20.71,-26.42 17.84,-30.9 30.24,-51.29c8.01,-11.74 40.22,-55.77 44.45,-59.78c4.23,-4.02 12.7,-10.81 17.39,-22.55c0,0 3.33,24.87 25.7,68.9c11.94,24.25 4.38,50.05 2.42,73.53c-1.97,23.48 -8.47,71.99 -11.49,84.19c-3.02,12.2 -38.29,137.46 -6.14,250.19c-0.32,27.05 -2.52,26.73 -3.78,33.82c-1.26,7.09 -0.32,11.92 -1.89,19.65c-1.58,7.73 -24.59,53.79 -10.09,138.17c2.52,28.34 8.2,59.58 5.04,76.98c-1.77,10.75 -2.45,15.13 -2.62,20.73c-1.66,5.64 -12.85,22.89 -15.75,27.87c-2.9,4.98 -1.12,5.29 -8.08,11.05c-6.97,5.76 -16.28,12.23 -21.05,23.03c-3.21,7.92 -0.39,11.35 3.6,11.43c0,0 -0.08,4.64 4.3,4.48c0,0 1.57,6.48 7.51,4.8c0,0 4.93,7.12 11.11,1.52c0,0 13.3,13.83 25.36,-7.68c0,0 15.57,-4.48 14.4,-19.11c-0.16,-4.72 4.54,-7.2 11.11,-11.03c6.57,-3.84 10.8,-6.8 6.97,-29.43c-0.86,-6.96 0.47,-14.47 0.47,-14.47c0,0 4.7,-2.24 3.21,-19.27c-1.49,-17.03 -2.87,-33.51 17.7,-100.71c4.07,-14.09 14.69,-4.85 6.55,-65.35c-4.52,-41.1 -3.16,-33.62 2.71,-45.68c5.88,-12.05 16.95,-23.83 19.44,-56.62c2.49,-32.79 9.27,-58.88 13.79,-74.13c4.52,-15.24 21.02,-53.8 22.83,-83.82c0.51,-17.14 0.11,-25.44 2.23,-25.44" fill="none" id="svg_66" stroke="#484a68" stroke-linecap="round" stroke-linejoin="round" stroke-width="3.46"/>
   <path d="m17.74,637.36s8.45,1.08 7.1,-7.4c-1.35,-8.48 0.36,-10.41 0.19,-18.76c-0.17,-8.34 6.15,-8.33 4.52,-24.4" fill="none" id="svg_67" stroke="#484a68" stroke-linecap="round" stroke-linejoin="round" stroke-width="3.46"/>
   <path d="m379.77,84.67s11.03,-3.64 9.62,15.53s-6.49,22.48 -13.54,21.04c0,0 -0.56,9.8 -3.39,15.57c0,0 0.28,31.56 0.99,39.35c0,0 9.17,9.22 14.25,11.82c5.08,2.59 25.25,10.95 30.19,13.26c4.94,2.31 12.98,9.66 14.53,10.38s11.43,3.17 14.67,4.04c3.24,0.86 40.77,3.32 54.17,48c2.26,8.22 5.08,9.95 13.26,41.8c2.82,9.22 9.31,1.01 37.1,68.03c4.09,10.09 10.16,12.4 28.92,35.46c18.76,23.06 37.53,80.63 50.04,108.21c9.99,18.48 9.43,31.75 22.35,56.69c7.46,14.93 4.33,8.55 6.29,25.23c1.96,16.68 1.54,22.28 1.33,25.62c-0.21,3.33 -5.03,20.44 -5.03,20.44c0,0 -10.99,1.03 -8.51,-13.09c2.49,-14.12 0.44,-10.69 -1.6,-24.88c-1.78,-7.72 -5.78,-6.19 -9.33,-18.43c-2.41,-5.04 -6.22,-5.97 -6.22,-5.97c0,0 2.7,26.61 -7.23,26.81c-9.93,0.2 -7.9,-11.98 -9.16,-26.5c-1.07,-8.63 -2.4,-13.32 -5.09,-16.67c-2.69,-3.35 -5.7,-11.75 -0.29,-19.36c2.18,-3.33 -6.62,-15.9 -8.66,-18.62c-18.84,-20.12 -28.69,-20.34 -49.4,-46.76c-20.71,-26.42 -17.84,-30.9 -30.24,-51.29c-8.01,-11.74 -40.22,-55.77 -44.45,-59.78s-12.7,-10.81 -17.39,-22.55c0,0 -3.33,24.87 -25.7,68.9c-11.94,24.25 -4.38,50.05 -2.42,73.53c1.97,23.48 8.47,71.99 11.49,84.19c3.02,12.2 38.29,137.46 6.14,250.19c0.32,27.05 2.52,26.73 3.78,33.82c1.26,7.09 0.32,11.92 1.89,19.65c1.58,7.73 24.59,53.79 10.09,138.17c-2.52,28.34 -8.2,59.58 -5.04,76.98c1.77,10.75 2.45,15.13 2.62,20.73c1.66,5.64 12.85,22.89 15.75,27.87c2.9,4.98 1.12,5.29 8.08,11.05c6.97,5.76 16.28,12.23 21.05,23.03c3.21,7.92 0.39,11.35 -3.6,11.43c0,0 0.08,4.64 -4.3,4.48c0,0 -1.57,6.48 -7.51,4.8c0,0 -4.93,7.12 -11.11,1.52c0,0 -13.3,13.83 -25.36,-7.68c0,0 -15.57,-4.48 -14.4,-19.11c0.16,-4.72 -4.54,-7.2 -11.11,-11.03c-6.57,-3.84 -10.8,-6.8 -6.97,-29.43c0.86,-6.96 -0.47,-14.47 -0.47,-14.47c0,0 -4.7,-2.24 -3.21,-19.27c1.49,-17.03 2.87,-33.51 -17.7,-100.71c-4.07,-14.09 -14.69,-4.85 -6.55,-65.35c4.52,-41.1 3.16,-33.62 -2.71,-45.68c-5.88,-12.05 -16.95,-23.83 -19.44,-56.62c-2.49,-32.79 -9.27,-58.88 -13.79,-74.13c-4.52,-15.24 -21.02,-53.8 -22.83,-83.82c-0.51,-17.14 -0.11,-25.44 -2.23,-25.44" fill="none" id="svg_68" stroke="#484a68" stroke-linecap="round" stroke-linejoin="round" stroke-width="3.46"/>
   <path d="m646.72,637.36s-8.45,1.08 -7.1,-7.4c1.35,-8.48 -0.36,-10.41 -0.19,-18.76s-6.15,-8.33 -4.52,-24.4" fill="none" id="svg_69" stroke="#484a68" stroke-linecap="round" stroke-linejoin="round" stroke-width="3.46"/>
   <path d="m284.82,84.56s0.54,-14.9 0,-24.54c-0.54,-9.63 6.51,-27.77 16.85,-22.43c10.89,5.63 32.28,10.76 58.33,0c7.35,-2.26 14.26,10.09 15.52,24.09c1.25,14 2.69,21.23 4.3,22.88" fill="none" id="svg_70" stroke="#484a68" stroke-linecap="round" stroke-linejoin="round" stroke-width="3.46"/>
   <g id="svg_71">
    <path d="m372.84,136.77s-10.57,20.48 -40.26,25.91" fill="none" id="svg_72" stroke="#484a68" stroke-linecap="round" stroke-linejoin="round" stroke-width="3.46"/>
    <path d="m291.97,136.77s10.57,20.48 40.26,25.91" fill="none" id="svg_73" stroke="#484a68" stroke-linecap="round" stroke-linejoin="round" stroke-width="3.46"/>
   </g>
   <path d="m284.69,84.67c-5.36,-3.86 -3.61,-20.07 -6.05,-37.39c-2.56,-18.19 16.27,-32.16 24.89,-34.59c5.86,-1.65 -18.28,1.29 6.39,-6.76s33.37,2.13 37.66,3.41c3.74,-0.45 -9.93,-8.43 11.87,-1.12c20.36,6.82 23.77,22.8 22.07,39.35c-2.2,21.32 2.15,29.08 -1.76,37.1" fill="none" id="svg_74" stroke="#484a68" stroke-linecap="round" stroke-linejoin="round" stroke-width="3.46"/>
  </g>
 </g>
</svg>